<svg width="2814" height="503" viewBox="0 0 2814 503" fill="none" xmlns="http://www.w3.org/2000/svg">
<g clip-path="url(#clip0_501_232)">
<path d="M2813.95 288.383C2813.95 437.965 2692.85 502.367 2571.77 502.14C2450.69 501.931 2329.59 437.074 2329.59 288.383L2329.56 0.517578H2436.28L2436.34 257.898C2437.41 359.781 2503.52 402.304 2571.17 405.451C2643.18 408.788 2716.92 366.207 2715.75 257.898L2715.85 0.517578H2813.99L2813.95 288.383ZM1859.14 211.298H2023.97C2048.3 211.298 2065.55 210.558 2075.58 209.08C2085.61 207.715 2094.78 204.643 2103.1 200.074C2121.32 190.197 2130.36 172.433 2130.36 146.517C2130.36 120.733 2121.3 102.95 2103.1 93.0918C2094.53 88.2763 2085.37 85.1861 2075.71 83.84C2066.05 82.475 2048.81 81.8684 2023.99 81.8684H1859.16V211.317L1859.14 211.298ZM1859.14 292.63L1859.16 494.025H1752.35L1752.28 0.536537H2035.34C2072.63 0.536537 2102.24 2.77364 2123.99 7.07721C2145.88 11.3997 2164.95 18.9262 2181.22 29.7895C2200.06 42.3779 2214.11 59.4026 2223.52 80.7498C2232.32 101.49 2236.73 123.691 2236.73 147.256C2236.73 227.849 2192.47 274.979 2103.81 288.686L2247.83 494.025H2126.64L1989.48 292.63H1859.12H1859.14ZM752.451 212.416H915.463C947.983 212.416 970.734 208.966 983.941 201.932C992.263 197.363 998.989 190.083 1004.12 180.092C1009.25 170.101 1011.82 158.991 1011.82 147.029C1011.82 135.18 1009.25 124.203 1004.12 114.212C998.989 104.22 992.263 96.9403 983.941 92.3714C970.978 85.3378 948.227 81.8873 915.463 81.8873H752.451V212.454V212.416ZM752.451 293.748L752.526 494.025H645.668L645.762 0.536537H928.05C963.632 0.536537 991.887 3.00114 1012.8 7.81659C1033.59 12.6131 1052.04 20.8979 1068.07 32.747C1084.58 44.9562 1097.54 61.1278 1106.82 81.129C1116.12 101.87 1120.76 123.823 1120.76 147.029C1120.76 180.225 1111.95 209.345 1094.22 234.522C1078.93 255.869 1058.75 271.169 1033.58 280.174C1008.27 289.179 973.157 293.748 928.05 293.748H752.451ZM353.554 300.535L276.923 130.743L275.082 126.667L274.199 124.696L193.604 300.554H275.082H276.134H353.554V300.535ZM322.612 0.536537L564.246 494.025H443.504L384.251 368.16H275.815H275.082H161.93L102.507 494.025H-0.0114746L233.15 0.536537C262.964 0.536537 292.798 0.536537 322.631 0.536537H322.612ZM1460.01 300.535L1383.38 130.743L1381.54 126.667L1380.66 124.696L1300.06 300.554H1381.54H1382.59H1460.01V300.535ZM1429.07 0.536537L1670.71 494.025H1549.96L1490.71 368.16H1382.27H1381.54H1268.39L1208.97 494.025H1106.45L1339.61 0.536537C1369.44 0.536537 1399.28 0.536537 1429.09 0.536537H1429.07Z" fill="#FC6500"/>
</g>
<defs>
<clipPath id="clip0_501_232">
<rect width="2814" height="501.626" fill="white" transform="translate(0 0.517578)"/>
</clipPath>
</defs>
</svg>
